<?xml version="1.0" encoding="utf-8"?>
<!-- Generator: Adobe Illustrator 16.0.0, SVG Export Plug-In . SVG Version: 6.00 Build 0)  -->
<!DOCTYPE svg PUBLIC "-//W3C//DTD SVG 1.1//EN" "http://www.w3.org/Graphics/SVG/1.1/DTD/svg11.dtd">
<svg version="1.1" id="Layer_1" xmlns="http://www.w3.org/2000/svg" xmlns:xlink="http://www.w3.org/1999/xlink" x="0px" y="0px"
	 width="1024px" height="1024px" viewBox="0 0 1024 1024" enable-background="new 0 0 1024 1024" xml:space="preserve">
<g>
	<g>
		<path fill="#FFFFFF" d="M902.816,852.816c0,27.5-22.5,50-50,50H171.184c-27.5,0-50-22.5-50-50V171.184c0-27.5,22.5-50,50-50
			h681.633c27.5,0,50,22.5,50,50V852.816z"/>
	</g>
	<path fill="#F15A29" d="M852.323,121.184c27.771,0,50.493,22.722,50.493,50.493v680.646c0,27.771-22.722,50.493-50.493,50.493
		H171.677c-27.771,0-50.493-22.722-50.493-50.493V171.677c0-27.771,22.722-50.493,50.493-50.493H852.323 M852.323,0H171.677
		C77.014,0,0,77.014,0,171.677v680.646C0,946.986,77.014,1024,171.677,1024h680.646C946.986,1024,1024,946.986,1024,852.323V171.677
		C1024,77.014,946.986,0,852.323,0L852.323,0z"/>
</g>
<path fill="#2B3990" d="M548.303,239.848c50.907,0,92.274,14.745,124.095,44.223c31.815,29.483,47.729,67.472,47.729,113.965
	c0,47.017-16.108,85.072-48.313,114.159c-32.211,29.097-74.68,43.638-127.406,43.638H443.096v228.32H337.898V239.848H548.303z
	 M522.194,473.622c28.057,0,49.937-6.429,65.655-19.286c15.713-12.858,23.572-31.882,23.572-57.08
	c0-50.127-32.211-75.197-96.634-75.197h-71.692v151.563H522.194z"/>
</svg>
